**************************** TPB IS BENEDICTION TO ME ***************************


Screen Link :---




General Info :---  (Disc 1) :---

Format                           : Matroska
File size                        : 184 MiB
Duration                         : 54mn 49s
Overall bit rate                 : 470 Kbps
Movie name                       : P
Encoded date                     : UTC 2011-06-14 12:37:28
Writing application              : mkvmerge v4.6.0 ('Still Crazy After All These Years') built on Mar 10 2011 02:50:32
Writing library                  : libebml v1.2.0 + libmatroska v1.1.0

Video
ID                               : 1
Format                           : AVC
Format/Info                      : Advanced Video Codec
Format profile                   : High@L4.0
Format settings, CABAC           : Yes
Format settings, ReFrames        : 3 frames
Codec ID                         : V_MPEG4/ISO/AVC
Duration                         : 54mn 49s
Bit rate mode                    : Variable
Bit rate                         : 245 Kbps
Maximum bit rate                 : 25.0 Mbps
Width                            : 352 pixels
Height                           : 288 pixels
Display aspect ratio             : 1.222
Frame rate                       : 25.000 fps
Standard                         : PAL
Color space                      : YUV
Chroma subsampling               : 4:2:0
Bit depth                        : 8 bits
Scan type                        : Progressive
Bits/(Pixel*Frame)               : 0.097
Stream size                      : 92.9 MiB (50%)

Audio
ID                               : 2
Format                           : MPEG Audio
Format version                   : Version 1
Format profile                   : Layer 2
Codec ID                         : A_MPEG/L2
Codec ID/Hint                    : MP2
Duration                         : 54mn 49s
Bit rate mode                    : Constant
Bit rate                         : 224 Kbps
Channel(s)                       : 2 channels
Sampling rate                    : 44.1 KHz
Compression mode                 : Lossy
Stream size                      : 87.8 MiB (48%)


General Info :---  (Disc 2) :---


Format                           : Matroska
File size                        : 185 MiB
Duration                         : 55mn 16s
Overall bit rate                 : 467 Kbps
Movie name                       : 2
Encoded date                     : UTC 2011-06-14 12:58:40
Writing application              : mkvmerge v4.6.0 ('Still Crazy After All These Years') built on Mar 10 2011 02:50:32
Writing library                  : libebml v1.2.0 + libmatroska v1.1.0

Video
ID                               : 1
Format                           : AVC
Format/Info                      : Advanced Video Codec
Format profile                   : High@L4.0
Format settings, CABAC           : Yes
Format settings, ReFrames        : 3 frames
Codec ID                         : V_MPEG4/ISO/AVC
Duration                         : 55mn 16s
Bit rate mode                    : Variable
Bit rate                         : 242 Kbps
Maximum bit rate                 : 25.0 Mbps
Width                            : 352 pixels
Height                           : 288 pixels
Display aspect ratio             : 1.222
Frame rate                       : 25.000 fps
Standard                         : PAL
Color space                      : YUV
Chroma subsampling               : 4:2:0
Bit depth                        : 8 bits
Scan type                        : Progressive
Bits/(Pixel*Frame)               : 0.095
Stream size                      : 92.5 MiB (50%)

Audio
ID                               : 2
Format                           : MPEG Audio
Format version                   : Version 1
Format profile                   : Layer 2
Codec ID                         : A_MPEG/L2
Codec ID/Hint                    : MP2
Duration                         : 55mn 16s
Bit rate mode                    : Constant
Bit rate                         : 224 Kbps
Channel(s)                       : 2 channels
Sampling rate                    : 44.1 KHz
Compression mode                 : Lossy
Stream size                      : 88.6 MiB (48%)


Cast :---

Robi Ghosh,Debraj Ray,Sunil Mukhopadhyay,Anuradha Ray,Subrato Sen Sharma

Crew :---

Director        :---  Ajoy Bandyopadhyay

Music Director  :---  Prabir Majumdar



**************************** TPB IS BENEDICTION TO ME ***************************






